<?xml version="1.0" standalone="no"?>
<!DOCTYPE svg PUBLIC "-//W3C//DTD SVG 20010904//EN"
 "http://www.w3.org/TR/2001/REC-SVG-20010904/DTD/svg10.dtd">
<svg version="1.0" xmlns="http://www.w3.org/2000/svg"
 width="1080.000000pt" height="1080.000000pt" viewBox="0 0 1080.000000 1080.000000"
 preserveAspectRatio="xMidYMid meet">
<metadata>
Created by potrace 1.10, written by Peter Selinger 2001-2011
</metadata>
<g transform="translate(0.000000,1080.000000) scale(0.100000,-0.100000)"
fill="#595959" stroke="none">
<path d="M585 8803 c-40 -95 -108 -454 -89 -473 5 -5 38 -11 74 -14 121 -9
375 -10 388 -2 19 12 6 276 -20 396 -30 138 -45 149 -74 55 l-18 -55 -92 0
c-58 0 -95 4 -100 11 -4 6 -12 34 -18 62 -6 28 -17 52 -23 54 -7 3 -19 -13
-28 -34z m95 -208 c0 -8 -9 -15 -20 -15 -11 0 -20 6 -20 13 0 8 -3 8 -9 -2
-10 -15 -41 -8 -41 9 0 5 20 10 45 10 33 0 45 -4 45 -15z m213 -10 c-1 -5 -12
-11 -24 -13 -31 -5 -71 7 -63 19 8 13 90 7 87 -6z"/>
<path d="M1190 8671 c0 -17 5 -33 10 -36 14 -9 13 -185 -1 -185 -6 0 -9 -14
-7 -32 l3 -33 83 -3 82 -3 0 36 c0 28 -4 35 -20 35 -15 0 -20 7 -20 29 0 27 2
29 55 33 32 3 62 12 74 22 25 22 33 67 19 107 -16 45 -57 59 -178 59 l-100 0
0 -29z m170 -51 c8 -14 8 -26 0 -40 -14 -27 -40 -14 -40 20 0 24 5 31 27 39 1
1 7 -8 13 -19z"/>
<path d="M1490 8672 c0 -15 4 -32 9 -37 5 -6 11 -50 14 -98 4 -56 11 -97 21
-112 28 -43 138 -56 198 -24 32 17 48 71 48 159 0 47 4 80 10 80 6 0 10 14 10
30 l0 30 -70 0 -70 0 0 -28 c0 -15 5 -33 10 -38 7 -7 10 -46 8 -95 -3 -73 -5
-84 -22 -87 -10 -2 -22 2 -27 10 -12 19 -11 168 1 168 6 0 10 16 10 35 l0 35
-75 0 -75 0 0 -28z"/>
<path d="M1820 8666 c0 -20 5 -36 10 -36 6 0 10 -37 10 -90 0 -53 -4 -90 -10
-90 -5 0 -10 -16 -10 -36 l0 -37 103 5 c111 5 149 17 180 60 27 37 34 117 13
171 -25 65 -59 81 -188 85 l-108 4 0 -36z m181 -57 c0 -11 0 -41 0 -69 0 -92
1 -90 -26 -90 -25 0 -25 0 -25 94 l0 93 25 -5 c16 -3 25 -11 26 -23z"/>
<path d="M2223 8685 c-48 -21 -73 -68 -73 -138 0 -114 48 -162 160 -162 36 1
77 4 93 8 24 7 27 12 27 52 0 25 5 45 10 45 6 0 10 14 10 30 l0 30 -70 0 -70
0 0 -29 c0 -16 5 -31 12 -33 21 -7 0 -40 -24 -36 -22 3 -23 7 -23 88 l0 85 27
3 c22 3 29 -2 34 -22 5 -23 11 -26 50 -26 l44 0 0 50 c0 48 -1 49 -37 59 -53
15 -132 13 -170 -4z"/>
<path d="M2450 8671 c0 -16 7 -34 15 -41 9 -7 31 -41 50 -75 34 -61 45 -105
25 -105 -5 0 -10 -16 -10 -35 l0 -35 75 0 75 0 0 35 c0 19 -4 35 -10 35 -19 0
-10 40 25 104 20 35 42 70 50 76 8 7 15 25 15 41 0 29 -1 29 -60 29 l-61 0 2
-42 c2 -46 -7 -88 -21 -88 -13 0 -19 41 -13 87 l6 43 -82 0 -81 0 0 -29z"/>
<path d="M2900 8665 c0 -19 5 -35 10 -35 6 0 10 -37 10 -90 0 -53 -4 -90 -10
-90 -5 0 -10 -16 -10 -35 l0 -35 85 0 85 0 0 35 c0 28 -4 35 -20 35 -15 0 -20
7 -20 29 0 28 2 29 57 33 68 6 93 30 93 90 0 81 -32 98 -181 98 l-99 0 0 -35z
m170 -64 c0 -33 -7 -42 -26 -34 -17 6 -19 60 -1 66 19 7 27 -2 27 -32z"/>
<path d="M3210 8575 c-18 -69 -37 -125 -42 -125 -4 0 -8 -16 -8 -35 l0 -35 65
0 65 0 0 34 c0 19 -5 36 -12 38 -6 2 -9 11 -6 20 8 19 68 12 68 -8 0 -8 -4
-14 -10 -14 -5 0 -10 -16 -10 -35 l0 -36 78 3 c76 3 77 3 80 31 2 16 -3 34
-11 40 -8 7 -22 41 -31 77 -10 36 -24 89 -33 118 l-14 52 -73 0 -72 0 -34
-125z m113 -22 c6 -28 4 -33 -13 -33 -21 0 -25 16 -14 58 8 29 19 18 27 -25z"/>
<path d="M3490 8670 c0 -18 6 -33 15 -36 23 -9 22 -184 -1 -184 -11 0 -14 -8
-12 -32 l3 -33 123 -3 122 -3 0 56 0 55 -35 0 c-28 0 -35 -4 -35 -20 0 -15 -7
-20 -25 -20 -25 0 -25 1 -25 90 0 83 1 90 20 90 16 0 20 7 20 35 l0 35 -85 0
-85 0 0 -30z"/>
<path d="M3820 8693 c-35 -13 -60 -47 -60 -83 0 -50 21 -74 85 -101 58 -24 73
-49 30 -49 -14 0 -25 5 -25 10 0 6 -20 10 -45 10 l-45 0 0 -39 c0 -44 4 -47
87 -56 71 -8 137 7 158 38 19 27 19 86 0 114 -8 12 -36 29 -62 39 -60 22 -70
31 -55 46 10 10 17 10 32 0 11 -6 36 -12 55 -12 33 0 35 2 35 34 0 29 -4 36
-31 45 -33 11 -132 14 -159 4z"/>
</g>
</svg>
