<?xml version="1.0" standalone="no"?>
<!DOCTYPE svg PUBLIC "-//W3C//DTD SVG 20010904//EN"
 "http://www.w3.org/TR/2001/REC-SVG-20010904/DTD/svg10.dtd">
<svg version="1.0" xmlns="http://www.w3.org/2000/svg"
 width="1080.000000pt" height="1080.000000pt" viewBox="0 0 1080.000000 1080.000000"
 preserveAspectRatio="xMidYMid meet">
<metadata>
Created by potrace 1.10, written by Peter Selinger 2001-2011
</metadata>
<g transform="translate(0.000000,1080.000000) scale(0.100000,-0.100000)"
fill="#595959" stroke="none">
<path d="M1842 9823 c-21 -18 -146 -395 -183 -553 -10 -41 -51 -276 -91 -521
-78 -474 -79 -489 -35 -537 32 -34 72 -40 332 -46 132 -4 359 -11 505 -16 492
-18 571 -17 603 4 15 11 35 33 44 50 17 33 17 7 -7 451 -5 99 -14 264 -20 368
-11 195 -13 207 -113 622 -28 114 -35 131 -59 144 -20 12 -31 13 -51 4 -21
-10 -33 -38 -83 -192 l-57 -181 -46 0 c-25 0 -162 5 -303 12 l-257 11 -31 136
c-17 75 -38 160 -46 188 -19 71 -59 92 -102 56z m111 -752 c-1 -24 -4 -46 -7
-48 -10 -10 -82 9 -106 27 -23 18 -24 20 -9 36 18 17 71 33 104 31 17 -2 20
-8 18 -46z m142 15 c14 -9 25 -21 25 -26 0 -15 -51 -38 -95 -41 -39 -4 -40 -3
-43 29 -5 55 3 65 49 59 22 -3 51 -12 64 -21z m536 -46 c-1 -25 -5 -47 -6 -48
-9 -9 -87 12 -107 28 -19 15 -20 20 -9 34 16 19 66 35 101 33 23 -2 25 -5 21
-47z m147 14 c12 -8 22 -19 22 -25 0 -15 -64 -39 -105 -39 -35 0 -35 0 -35 43
0 24 2 46 5 49 9 8 87 -11 113 -28z"/>
<path d="M720 7685 c0 -19 5 -35 10 -35 6 0 10 -40 10 -100 0 -60 -4 -100 -10
-100 -5 0 -10 -16 -10 -35 l0 -35 90 0 90 0 0 35 c0 28 -4 35 -20 35 -15 0
-20 7 -20 29 0 27 2 29 59 35 50 6 64 12 85 37 45 53 30 130 -29 154 -23 10
-71 15 -145 15 l-110 0 0 -35z m184 -57 c8 -13 8 -23 0 -35 -19 -31 -39 -21
-42 20 -3 32 0 38 14 35 9 -1 22 -11 28 -20z"/>
<path d="M1050 7685 c0 -19 5 -35 10 -35 6 0 10 -38 10 -95 0 -133 15 -158
112 -181 43 -10 125 14 148 43 17 22 20 41 20 125 0 78 3 100 15 104 9 4 15
19 15 40 l0 34 -75 0 -75 0 0 -34 c0 -19 5 -38 10 -41 12 -8 13 -165 1 -183
-5 -8 -17 -12 -27 -10 -17 3 -19 15 -22 101 -2 62 1 97 8 97 5 0 10 16 10 35
l0 35 -80 0 -80 0 0 -35z"/>
<path d="M1400 7686 c0 -20 5 -36 10 -36 6 0 10 -40 10 -100 0 -60 -4 -100
-10 -100 -5 0 -10 -16 -10 -35 l0 -35 110 0 c177 0 220 32 220 163 0 139 -38
170 -212 175 l-118 4 0 -36z m188 -44 c9 -6 12 -33 10 -98 -3 -89 -3 -89 -30
-92 l-28 -3 0 100 c0 90 2 101 18 101 9 0 23 -4 30 -8z"/>
<path d="M1833 7701 c-56 -26 -77 -67 -77 -151 0 -76 20 -122 66 -150 43 -26
122 -34 183 -18 l50 13 3 48 c2 33 7 47 18 47 9 0 14 11 14 30 l0 30 -80 0
-80 0 0 -30 c0 -20 5 -30 15 -30 17 0 19 -9 6 -28 -4 -8 -19 -12 -32 -10 -23
3 -24 7 -27 95 -3 85 -1 92 18 98 25 8 50 -10 50 -36 0 -16 8 -19 50 -19 l50
0 0 55 c0 54 0 54 -37 64 -59 17 -143 13 -190 -8z"/>
<path d="M2090 7686 c0 -19 4 -37 9 -40 5 -4 28 -38 50 -77 39 -68 52 -119 31
-119 -5 0 -10 -16 -10 -35 l0 -35 80 0 80 0 0 35 c0 19 -4 35 -10 35 -20 0 -9
43 27 108 20 37 42 74 49 82 7 8 14 30 17 48 l5 32 -69 0 -69 0 0 -34 c0 -19
5 -36 10 -38 11 -3 -9 -68 -21 -68 -15 0 -27 50 -22 93 l6 47 -82 0 -81 0 0
-34z"/>
<path d="M2570 7685 c0 -19 5 -35 10 -35 6 0 10 -40 10 -100 0 -60 -4 -100
-10 -100 -5 0 -10 -16 -10 -35 l0 -35 90 0 90 0 0 35 c0 28 -4 35 -20 35 -15
0 -20 7 -20 29 0 27 3 29 52 34 29 4 64 15 78 25 34 25 47 80 30 122 -20 47
-59 60 -190 60 l-110 0 0 -35z m184 -57 c13 -21 -2 -51 -28 -56 -13 -3 -16 5
-16 38 0 33 3 41 16 38 9 -2 22 -11 28 -20z"/>
<path d="M2905 7585 c-20 -74 -41 -135 -46 -135 -5 0 -9 -16 -9 -35 l0 -35 75
0 75 0 0 35 c0 25 -4 35 -16 35 -32 0 -6 25 29 28 28 2 37 -1 37 -12 0 -9 -7
-16 -15 -16 -10 0 -15 -11 -15 -35 l0 -35 85 0 85 0 0 34 c0 19 -4 36 -8 38
-5 2 -21 48 -36 103 -15 55 -32 115 -37 133 l-11 32 -77 0 -78 0 -38 -135z
m115 16 c0 -5 3 -23 6 -40 6 -27 4 -31 -15 -31 -23 0 -24 3 -15 49 6 28 24 45
24 22z"/>
<path d="M3210 7686 c0 -21 6 -36 15 -40 12 -4 15 -25 15 -101 0 -78 -3 -95
-15 -95 -10 0 -15 -11 -15 -35 l0 -35 135 0 135 0 0 55 0 55 -40 0 c-33 0 -40
-3 -40 -20 0 -15 -7 -20 -25 -20 l-26 0 3 98 c3 92 4 97 26 100 18 3 22 10 22
38 l0 34 -95 0 -95 0 0 -34z"/>
<path d="M3553 7705 c-38 -16 -53 -42 -53 -88 0 -46 30 -82 88 -103 56 -21 74
-33 66 -45 -7 -12 -54 -11 -54 1 0 6 -22 10 -50 10 l-50 0 0 -40 c0 -35 4 -42
28 -52 44 -18 172 -15 209 5 42 22 62 81 43 126 -14 34 -35 50 -102 75 -27 10
-48 22 -48 27 0 16 32 23 51 11 10 -7 35 -12 54 -12 34 0 35 1 35 40 0 37 -2
40 -37 49 -53 15 -142 13 -180 -4z"/>
</g>
</svg>
